<svg width="11" height="16" viewBox="0 0 11 16" fill="none" xmlns="http://www.w3.org/2000/svg">
<path d="M7.13816 0C7.13816 0 -0.934342 3.10563 7.03841 8.6175C9.88966 10.588 9.41741 12.6039 9.41741 12.6765C9.86241 12.2134 12.1417 9.68 9.43566 6.84688C6.72966 4.01363 5.97591 2.26113 7.13816 0ZM2.91566 3.0875C2.91566 3.0875 -3.39534 6.9375 2.55253 10.7605C3.69666 11.5051 7.84653 13.5755 7.72841 15.4915C7.72841 15.4915 10.2437 11.7684 6.56603 9.42562C2.78853 7.01925 1.84416 4.46762 2.91566 3.08737V3.0875ZM0.718158 10.4427C0.718158 10.4427 -1.53359 13.8569 2.89778 14.5561C3.33366 14.6106 6.54803 14.9466 7.37441 16C7.37441 16 7.30178 14.184 4.68653 13.1125C2.07128 12.041 1.00903 11.7685 0.718408 10.4427H0.718158Z" fill="#F1712A"/>
</svg>
